<svg width="128" height="113" viewBox="0 0 128 113" fill="none" xmlns="http://www.w3.org/2000/svg">
<path d="M34.75 55C35.25 55 35.5 55.25 36 55.5C36.25 55.75 36.5 56 36.75 56.5C37 57 37.25 57.25 37.25 57.75V101C37.25 102 37 102.5 36.5 103C36 103.5 35.25 103.75 34.5 103.75C33.75 103.75 33.25 103.5 32.75 103C32.25 102.5 32 102 32 101V57.75C32 57.25 32.25 56.5 32.75 56C33.25 55.5 33.75 55 34.75 55ZM73.75 98.75C75.25 99 76 99.75 76 101.25C76 101.5 75.75 101.75 75.75 101.75L74.25 110.75C73.75 112.25 73 112.75 71.5 112.75H71C69.5 112.75 69 111.75 69 110.25V109.75L70.75 100.75C70.75 99.5 71.75 98.75 73.25 98.75H73.75ZM127.75 109.5V110.25C127.75 111 127.5 111.5 127 112C126.5 112.5 125.75 112.75 125.25 112.75C123.75 112.75 122.75 112.25 122.5 110.75L112.25 68.25L99.25 55C98 53.75 97.5 52.25 97.5 50.25V42.25C97.5 40.5 98 39 99.25 37.75C100.5 36.5 102 35.75 104 35.5H106C105.5 23.5 103.25 15 99 10C97 7.5 94.25 6.25 91.25 6.25H89.75C86.5 6.25 84 7.5 82 10C77.75 15 75.5 23.5 75.25 35.5H77C78.75 35.75 80.25 36.5 81.75 37.75C83 39 83.75 40.5 83.75 42.25V50.25C83.75 52.25 83 53.75 81.75 55L69 68.25L58.5 110.75C58 112.25 57.25 112.75 55.75 112.75H55.25C53.75 112.5 53.25 111.75 53.25 110.25V109.5L63.75 66.25C63.75 66 64 65.75 64.5 65.25L66.5 63C66 63 65.75 63 65.5 62.75L41 49.75C40 49.25 39.75 48.5 39.75 47.25V41.5C39.75 41 39.75 40.5 40 40L47.25 29V14.75C46 12.75 44.25 10.75 41.75 9C39.25 7.5 37 6.5 34.75 6H34.5C32 6.5 29.75 7.5 27.25 9C24.75 10.75 23.25 12.75 22.25 14.75V29L29.25 40C29.5 40.5 29.75 41 29.75 41.5V47.25C29.75 48.5 29.25 49.25 28.25 49.75L5.25 62V110C5.25 110.75 5 111.5 4.5 112C4 112.5 3.25 112.75 2.5 112.75C1.75 112.75 1.25 112.5 0.75 112C0.25 111.5 0 110.75 0 110V60.25C0 59.25 0.5 58.5 1.5 58L24.25 45.75V42.25L17.25 31.25C16.75 30.75 16.75 30.25 16.75 29.75V14C16.75 13.75 16.75 13.25 17.25 12.75C17.75 11.75 18.25 10.75 19.25 9.25C20.25 8 22 6.25 25 4C28 2 31 0.75 34.5 0.75H34.75C38 0.75 41.25 2 44.25 4C47.25 6.25 49 8 50 9.25C51 10.75 51.75 11.75 52.25 12.75C52.25 13.25 52.5 13.75 52.5 14V29.75C52.5 30.25 52.25 30.75 52 31.25L45 42.25V45.75L68 58C68.75 58.5 69.25 59.25 69.25 60.25L78 51.25C78.25 51.25 78.5 50.75 78.5 50.25V42.25C78.5 41.5 78 41 77 41H72.5C71.75 41 71.25 40.75 70.75 40.25C70.25 39.75 70 39.25 70 38.25C69.75 23.25 72.5 12.75 78 6.25C79.25 5 81 3.75 83.25 2.75C85.5 1.75 87.75 1 89.75 1H90C90 1 90.25 0.75 90.5 0.75C90.5 0.75 90.75 1 91 1C91 1 91.25 1 91.5 1C93.5 1 95.5 1.75 97.75 2.75C100 3.75 101.75 5 103 6.25C108.5 12.75 111.25 23.25 111.25 38.25C111.25 39.25 111 39.75 110.5 40.25C110 40.75 109.25 41 108.5 41H104C103 41 102.75 41.5 102.75 42.25V50.25C102.75 50.75 102.75 51.25 103.25 51.25L116.5 65.25C116.75 65.75 117 66 117.25 66.25L127.75 109.5ZM107.5 98.75H108C109.5 98.75 110.25 99.5 110.5 100.75L112.25 109.75V110.25C112.25 111.75 111.5 112.75 110.25 112.75H109.75C108.25 112.75 107.25 112.25 107 110.75L105.5 101.75C105.25 101.75 105.25 101.5 105.25 101.25C105.25 99.75 106 99 107.5 98.75ZM102.75 65.5C103.75 66 104.25 67 104.25 68C104.25 68.5 104 68.75 104 69C103.25 70.75 102.25 72.25 100.75 73.75C99.25 75.25 97.75 76.5 96 77.5C94 78.5 92.25 79 90.5 79C87.5 79 84.75 77.75 82.25 75.75C79.5 73.75 77.75 71.5 77 69C76.75 68.75 76.75 68.5 76.75 68C76.75 67.25 77 66.5 77.5 66C78 65.5 78.5 65.25 79.25 65.25C80.25 65.25 81.25 65.75 81.75 66.75C82.25 68.5 83.5 70 85.25 71.25C86.75 72.75 88.5 73.5 90.5 73.5C91.5 73.5 92.75 73.25 94 72.5C95 72 96 71 97 70C98 69 98.5 68 99 66.75C99.5 65.75 100.25 65.25 101.5 65.25C101.75 65.25 102.25 65.5 102.75 65.5Z" fill="white"/>
</svg>
