<svg width="128" height="122" viewBox="0 0 128 122" fill="none" xmlns="http://www.w3.org/2000/svg">
<path d="M127.75 60.5C127.75 61 128 61.25 128 61.75C128 62.25 127.75 62.5 127.75 62.75L101.5 120.25C101 121.25 100 121.75 99 121.75C98.75 121.75 98.5 121.75 98.25 121.5L60.75 112.25L58.75 114C58.25 114.5 57.5 114.5 57 114.5H56.5L37 109.75C35.75 109.5 35 108.75 35 107.25L34.75 106.25L2 98.75C0.5 98.5 0 97.5 0 96C0 95.75 0 95.5 0.25 95L7.5 79.5L7.75 79.25L36.75 34.25C37.25 33.5 38 33 39 33H39.5C48.25 34.5 55.5 35.75 61.25 36.75C62.75 37 64.5 37.5 66.25 38.5C67.75 39.5 69.25 40.5 70.75 41.75C72.25 43 73.25 44.25 74 45.75C77 41.75 82 40.5 88.75 41.75L110.75 46.5H111C111 46.75 111.25 47 111.75 47L112 47.25H112.25L122.75 58.5L125.75 59C126.5 59.25 127.25 59.75 127.75 60.5ZM40.25 38.5L14.25 78.75L35 82.75C37.25 83.5 39.75 84.75 42.25 86.75C44.75 88.75 46.75 90.75 48 92.75C50 90 53 88.5 56.75 88.5H57.25C59.25 88.5 61 88.75 63 89.25C68.25 90.5 75.75 92.5 85.75 95L106.5 51L87.75 47C84.25 46.5 81.75 46.5 80.5 47.25C79 48 77.5 49.75 76 52.5C75.5 53.5 74.5 54 73.5 54H73.25C72 54 71.25 53.25 71 52C70.5 49.75 69 47.5 67 45.5C65 43.5 62.75 42.5 60.5 42C55.5 41.25 48.75 40 40.25 38.5ZM97.5 116L121.5 63.75L121 63.5C120.25 63.5 119.75 63.25 119.5 62.75L111 53.75L89.5 99.25C89 100.25 88 100.75 87 100.75H86.5C75.75 97.75 67.5 95.75 61.75 94.25C58 93.5 55.5 93.5 54 94.5C52.5 95.5 51.25 97.25 50.5 100C50 101.5 49.25 102 48 102C46.5 102 45.75 101.5 45.5 100C44.75 97.5 43.25 95.25 41 92.75C38.75 90.5 36.25 89 33.75 88L11.5 83.75L6.5 94.25L36.5 101.25C38.5 101.75 39.5 103 40 105L56.5 109L57.75 108C58.75 107.5 59.75 107 60.75 107H62L97.5 116ZM83.75 26.25C82.25 26 81.5 25 81.5 23.5C81.5 23.5 81.5 23.25 81.75 23.25L85.25 2.25C85.5 0.75 86.5 0 88 0C88.5 0 89.25 0.25 89.75 0.75C90.25 1.25 90.75 2 90.75 2.5C90.75 2.75 90.5 3 90.5 3L87 24C86.5 25.5 85.75 26.25 84.25 26.25H83.75ZM96 30.75C95 30.25 94.75 29.5 94.75 28.25C94.75 28 94.75 27.5 95 27L105.75 8.5C106.25 7.75 107 7.25 108 7.25C108.5 7.25 108.75 7.5 109.25 7.75C109.75 8 110 8.25 110.25 8.75C110.5 9.25 110.75 9.5 110.75 10C110.75 10.5 110.5 10.75 110.25 11.25L99.75 29.75C99 30.75 98.25 31 97.25 31C96.75 31 96.25 31 96 30.75ZM70.5 26.25C69 26.25 68 25.5 67.75 24L64 3V2.5C64 2.25 64 2 64.25 1.5C64.5 1 64.75 0.75 65.25 0.5C65.75 0.25 66.25 0 66.75 0C68.25 0 69 0.75 69.25 2.25L73 23.25V23.5C73 25 72.25 26 70.75 26.25H70.5ZM55 29.75L44.25 11.25C44 10.75 44 10.5 44 10C44 9.25 44.25 8.5 44.75 8C45.25 7.5 45.75 7.25 46.75 7.25C47.75 7.25 48.5 7.75 49 8.5L59.75 27C59.75 27.5 60 28 60 28.25C60 29.25 59.75 29.75 59.25 30.25C58.75 30.75 58 31 57.25 31C56.25 31 55.5 30.75 55 29.75ZM106 39C105.5 38.5 105.25 38 105.25 37.25C105.25 36.5 105.5 35.75 106.25 35.25L122.5 21.5C123 21.25 123.5 21 124.25 21C124.75 21 125 21.25 125.5 21.25C126 21.5 126.25 21.75 126.5 22.25C126.75 22.75 127 23 127 23.5C127 24.5 126.5 25 126 25.5L109.75 39.25C109.25 39.75 108.5 40 108 40C107 40 106.5 39.75 106 39Z" fill="white"/>
</svg>
