<svg width="118" height="113" viewBox="0 0 118 113" fill="none" xmlns="http://www.w3.org/2000/svg">
<path d="M117.25 60.25C117.75 60.75 118 61.5 118 62C118 62.75 117.75 63.5 117.25 64C116.75 64.5 116 64.75 115.25 64.75C114.5 64.75 113.75 64.5 113.25 63.75L59 7.25L5 63.75C4.5 64.5 3.75 64.75 3 64.75C2.25 64.75 1.75 64.5 1.25 64C0.75 63.5 0.5 62.75 0.5 62C0.5 61.5 0.75 60.75 1.25 60.25L57 1.5C57.5 1 58 0.75 59 0.75C59.75 0.75 60.5 1 61 1.5L80.25 21.75V3.25C80.25 2.75 80.5 2 81 1.5C81.5 1 82.25 0.75 83 0.75H99C99.5 0.75 100.25 1 100.75 1.5C101.25 2 101.75 2.75 101.75 3.25V43.25C101.75 43.5 101.5 43.75 101.5 43.75L117.25 60.25ZM85.75 6V27.25L96.25 38.5V6H85.75ZM99 56.75C99.5 56.75 100.25 57 100.75 57.5C101.25 58 101.75 58.75 101.75 59.25V110C101.75 110.75 101.25 111.5 100.75 112C100.25 112.5 99.5 112.75 99 112.75H19C18.25 112.75 17.5 112.5 17 112C16.5 111.5 16.25 110.75 16.25 110V59.25C16.25 58.75 16.25 58.5 16.5 58C16.75 57.75 17 57.5 17.5 57.25C18 57 18.5 56.75 19 56.75C19.5 56.75 20.25 57 20.75 57.5C21.25 58 21.75 58.75 21.75 59.25V107.25H43V72.75C43 72 43.25 71.25 43.75 70.75C44.25 70.25 44.75 70 45.75 70H72.25C73 70 73.75 70.25 74.25 70.75C74.75 71.25 75 72 75 72.75V107.25H96.25V59.25C96.25 58.75 96.5 58 97 57.5C97.5 57 98.25 56.75 99 56.75ZM48.25 75.25V107.25H69.75V75.25H48.25Z" fill="white"/>
</svg>
