<svg width="118" height="112" viewBox="0 0 118 112" fill="none" xmlns="http://www.w3.org/2000/svg">
<path d="M15.25 71.75C14.25 71.5 13.75 70.75 13.75 69.25V68.25L29.75 28.25C30.25 27.25 31.25 26.75 32.25 26.75C33.25 26.75 34.25 27.25 34.75 28.25L50.75 68.25C50.75 68.75 51 69 51 69.25C51 70.25 50.75 70.75 50.25 71.25C49.75 71.75 49 72 48.25 72C47 72 46.25 71.5 45.75 70.25L40.25 56H24.5L18.75 70.25C18.25 71.5 17.5 72 16.25 72C15.75 72 15.5 72 15.25 71.75ZM32.25 36.5L26.75 50.75H38L32.25 36.5ZM27 24C26.25 24 25.5 23.75 25 23.25C24.5 22.75 24.25 22.25 24.25 21.25C24.25 20.25 24.75 19.5 25.75 19L36.5 13.5C36.75 13.5 37.25 13.25 37.75 13.25C38.25 13.25 39 13.75 39.5 14.25C40 14.75 40.25 15.5 40.25 16C40.25 17.25 39.75 18 38.75 18.5L28.25 23.75C27.75 24 27.5 24 27 24ZM57.75 60C58 56.5 59.5 53.25 62.25 49.75C64.75 46.5 67.75 44.25 71.25 42.75C71.25 40.25 71.5 37.75 72 34.75H61.75C60.75 34.75 60.25 34.5 59.75 34C59.25 33.5 59 32.75 59 32C59 31.5 59.25 30.75 59.75 30.25C60.25 29.75 60.75 29.25 61.75 29.25H73C73.5 26 74.25 23 75 20.5C75.5 19.5 76.25 18.75 77.75 18.75C78.25 18.75 79 19 79.5 19.5C80 20 80.25 20.75 80.25 21.25V22C79.75 23.75 79 26 78.5 29C83.25 28.5 88.25 27.75 93.25 26.75H93.75C94.25 26.75 95 27 95.5 27.5C96 28 96.25 28.75 96.25 29.25C96.25 30.75 95.5 31.75 94.25 32C88.25 33.25 82.75 34 77.5 34.5C77 36.5 76.75 38.5 76.75 41C78.25 40.75 79.5 40.5 81 40.5C84 40.5 87 41 90 42C90.5 40.5 91 39.5 91.25 39C91.5 38 92.25 37.25 93.75 37.25C94.25 37.25 95 37.75 95.5 38.25C96 38.75 96.25 39.5 96.25 40V41C95.75 42 95.25 43.25 94.75 44.25C96 45 97.25 46 98.25 47.25C99.25 48.75 100 50 100.75 51.5C101.25 53 101.75 54.5 101.75 56C101.75 59.75 100.5 63.25 98 66.25C95.5 69.25 92.5 71.25 89 72H88.25C87.5 72 87 71.75 86.5 71.25C86 70.75 85.75 70.25 85.75 69.25C85.75 68 86.25 67.25 87.75 66.75C89.25 66.5 90.5 65.75 92 64.75C93.25 63.75 94.25 62.25 95 60.75C95.75 59.25 96.25 57.5 96.25 56C96.25 53 95 50.75 92.5 49C89.5 54.5 86.25 59.25 82.25 63.25L79.25 66.25C79.5 67.25 79.75 68 80 68C80 68.5 80.25 69 80.25 69.25C80.25 70.25 80 70.75 79.5 71.25C79 71.75 78.25 72 77.75 72C76.5 72 75.75 71.5 75.25 70.5C75.25 70.5 75 70.25 75 69.75C72.5 71.25 70 72 67.25 72H67C64.25 71.75 62 70.5 60.25 68.5C58.25 66.5 57.5 64 57.5 61.25C57.5 61 57.5 60.5 57.75 60ZM67 66.75H67.25C69.25 66.75 71.25 66 73 64.5C71.5 59.5 71 54.25 71 48.75C69 49.75 67.25 51.5 65.75 53.5C64.25 55.75 63.25 58 63 60C63 62 63.25 63.5 64.25 64.75C65 66.25 66 66.75 67 66.75ZM81 46C79.25 46 77.75 46.25 76.5 46.5C76.5 46.75 76.25 47 76.25 47.25V48.25C76.25 52.25 76.5 56.25 77.5 60.25C77.5 60.25 77.75 60.25 78 60L78.5 59.5C82 55.75 85 51.5 87.5 47C85.25 46.5 83 46 81 46ZM115 0C115.5 0 116.25 0.25 116.75 0.75C117.25 1.25 117.75 2 117.75 2.75V88C117.75 88.75 117.25 89.5 116.75 90C116.25 90.5 115.5 90.75 115 90.75H73.5L53 111.25C52.25 111.75 51.5 112 51 112C50.25 112 49.5 111.75 49 111.25C48.5 110.75 48.25 110.25 48.25 109.25V90.75H3C2.25 90.75 1.5 90.5 1 90C0.5 89.5 0.25 88.75 0.25 88V2.75C0.25 2 0.5 1.25 1 0.75C1.5 0.25 2.25 0 3 0H115ZM112.25 85.25V5.25H5.75V85.25H51C51.5 85.25 52.25 85.75 52.75 86.25C53.25 86.75 53.75 87.5 53.75 88V103L70.5 86C71 85.5 71.5 85.25 72.25 85.25H112.25Z" fill="white"/>
</svg>
