<svg width="118" height="118" viewBox="0 0 118 118" fill="none" xmlns="http://www.w3.org/2000/svg">
<path d="M91 93.5C90.25 93.5 89.5 93.25 89 92.75C88.5 92.25 88.25 91.75 88.25 90.75V80L65.5 67.75C64.5 67.25 64 66.5 64 65.5V59.75C64 59.25 64 58.75 64.5 58.25L71.5 47.25V32.75C70.25 30.75 68.5 29 66.25 27.25C63.75 25.5 61.5 24.5 59.25 24.25H59C58.25 24.25 57.5 24 57 23.5C56.5 23 56.25 22.25 56.25 21.5C56.25 20.75 56.5 20 57 19.5C57.5 19 58 18.75 59 18.75H59.25C62.25 18.75 65.5 20 68.5 22C71.5 24.25 73.25 26 74.25 27.5C75.25 29 76 30 76.5 31C76.5 31.5 76.75 31.75 76.75 32.25V48C76.75 48.5 76.5 49 76.5 49.5L69.25 60.5V64L92.25 76.25C93.25 76.75 93.75 77.5 93.75 78.5V90.75C93.75 91.25 93.5 91.75 93.25 92.25C93 92.75 92.75 93 92.25 93.25C91.75 93.5 91.5 93.5 91 93.5ZM27 93.5C26.25 93.5 25.5 93.25 25 92.75C24.5 92.25 24.25 91.75 24.25 90.75V78.5C24.25 77.5 24.75 76.75 25.75 76.25L48.75 64V60.5L41.5 49.5C41.25 49 41.25 48.5 41.25 48V32.25C41.25 31.75 41.25 31.5 41.5 31C42 30 42.5 29 43.5 27.5C44.5 26 46.5 24.25 49.5 22C52.5 20 55.5 18.75 59 18.75C59.5 18.75 60.25 19 60.75 19.5C61.25 20 61.75 20.75 61.75 21.5C61.5 23.25 60.5 24.25 59 24.25H58.75C56.25 24.5 54 25.5 51.75 27.25C49.25 29 47.5 30.75 46.5 32.75V47.25L53.5 58.25C53.75 58.75 54 59.25 54 59.75V65.5C54 66.5 53.5 67.25 52.5 67.75L29.75 80V90.75C29.75 91.75 29.25 92.25 28.75 92.75C28.25 93.25 27.5 93.5 27 93.5ZM59 117.75C42.75 117.75 29 112 17.5 100.5C6 89 0.25 75.25 0.25 59C0.25 43 6 29 17.5 17.5C29 6 42.75 0.25 59 0.25C75 0.25 89 6 100.5 17.5C112 29 117.75 43 117.75 59C117.75 75.25 112 89 100.5 100.5C89 112 75 117.75 59 117.75ZM59 5.75C44.25 5.75 31.75 11 21.25 21.5C10.75 32 5.75 44.5 5.75 59C5.75 73.75 10.75 86.25 21.25 96.75C31.75 107.25 44.25 112.25 59 112.25C73.5 112.25 86 107.25 96.5 96.75C107 86.25 112.25 73.75 112.25 59C112.25 44.5 107 32 96.5 21.5C86 11 73.5 5.75 59 5.75Z" fill="white"/>
</svg>
