<svg width="118" height="118" viewBox="0 0 118 118" fill="none" xmlns="http://www.w3.org/2000/svg">
<path d="M109.75 29.75C111.75 33.5 113.75 38.25 115.25 44C116.75 49.75 117.75 54.75 117.75 59C117.75 64.25 117 69.25 115.75 74.25C112.25 86.25 105.25 96.5 94.25 105C83.25 113.5 71.5 117.75 59 117.75C53.75 117.75 48.75 117.25 43.75 115.75C31.75 112.5 21.5 105.25 13 94.25C4.5 83.25 0.25 71.5 0.25 59C0.25 43 6 29 17.5 17.5C29 6 42.75 0.25 59 0.25C68.25 0.25 77.75 3.25 87.75 9C97.75 14.75 105 21.75 109.75 29.75ZM111 70C111.75 66.5 112.25 62.75 112.25 59C112.25 56.5 112 53.75 111.5 50.75C111 47.75 110.25 44.75 109.25 41.75C108.25 38.75 107.25 36.25 106.25 34.25C99.25 37 92.25 38.25 85 38.25H84.75C84.75 40 85 41.75 85 43.5C85 50 84.25 56.25 82.75 62.5L111 70ZM39.5 85.5C40.5 93.5 42.5 101.25 46 108.75C52.25 104.25 57.75 98.75 62.5 92.5C58.75 90.75 55 89.25 51.25 87.75C47.25 86.75 43.5 86 39.5 85.5ZM52.75 82.75C57.25 84.25 61.5 86 65.75 88.25C70.25 81.5 73.75 74.25 76.25 66.25L41 56.75C39.5 63 38.75 69.25 38.75 75.25C38.75 77 38.75 78.75 39 80.25C43.5 80.75 48.25 81.5 52.75 82.75ZM42.25 51.75L77.75 61C78.75 55.25 79.5 49.5 79.5 43.5V38C74.75 37.75 70.25 36.75 65.75 35.25C61.25 34 57 32.25 53 30C48.25 36.75 44.75 44 42.25 51.75ZM56 25.75C59.5 27.75 63.5 29.25 67.5 30.25C71 31.5 75 32.25 79 32.5C77.75 24.75 75.5 17.25 72.5 10C66.25 14.5 60.75 19.75 56 25.75ZM103.5 29.5C100.75 25.75 97 21.75 92 17.75C87 13.75 82.5 11 78 9.25C81 16.75 83.25 24.75 84.25 32.75C84.5 33 84.75 33 85.25 33C91.25 33 97.5 32 103.5 29.5ZM59 5.75C50.5 5.75 42.75 7.75 35.5 11.25C40.25 15.75 45.5 19.75 51.25 23C56 17 61.5 11.5 68 6.5C65 6 62 5.75 59 5.75ZM30.5 14C26 17 21.5 21.25 17.25 26.75C12.75 32.25 9.75 37.5 8.25 42.5L37.25 50.25C39.75 42.25 43.25 34.5 48.25 27.5C41.75 23.5 36 19 30.5 14ZM7 47.75C6 51.5 5.75 55.25 5.75 59C5.75 62.75 6.25 67 7.5 72C8.75 77 10.25 81 12 84C18.75 81.5 25.75 80 33.25 80H33.75C33.5 78.5 33.5 76.75 33.5 75.25C33.5 68.75 34.25 62 35.75 55.5L7 47.75ZM14.75 88.75C17.25 92.75 21 96.5 26 100.5C31 104.5 35.75 107.5 40.25 109C37 101.5 35 93.5 34 85.25H33.5C27 85.25 20.75 86.5 14.75 88.75ZM50.75 111.75C53.5 112.25 56.25 112.25 59 112.25C62.5 112.25 66.5 111.75 71 110.75C75.5 109.75 79.5 108.25 82.75 106.75C77.75 102.5 72.75 98.75 67.25 95.25C62.5 101.5 57 107 50.75 111.75ZM87.75 104C92 101.25 96.25 97 100.75 91.25C105 85.75 108 80.25 109.75 75.25L81.5 67.75C79 76 75.25 83.75 70.5 90.75C76.5 94.75 82.25 99 87.75 104Z" fill="white"/>
</svg>
