<svg width="118" height="128" viewBox="0 0 118 128" fill="none" xmlns="http://www.w3.org/2000/svg">
<path d="M118 45.25V100.75C118 105.25 116.25 109.25 113.25 112.25C110.25 115.25 106.5 116.75 102 116.75C97.5 116.75 93.5 115.25 90.5 112.25C87.5 109.25 86 105.25 86 100.75C86 96.25 87.5 92.5 90.5 89.5C93.5 86.5 97.5 84.75 102 84.75C106.25 84.75 109.75 86.25 112.75 89V69.75L75.25 79.5V112C75.25 116.5 73.75 120.5 70.75 123.5C67.75 126.5 63.75 128 59.25 128C54.75 128 50.75 126.5 47.75 123.5C44.75 120.5 43.25 116.5 43.25 112C43.25 107.5 44.75 103.75 47.75 100.75C50.75 97.75 54.75 96 59.25 96C63.5 96 67 97.5 70 100.25V56C70 55 70.75 54.25 72.25 53.25L114.75 42.75L117 43.25L118 45.25ZM59.25 122.75C62.25 122.75 64.75 121.75 66.75 119.75C68.75 117.75 70 115 70 112C70 109 68.75 106.5 66.75 104.5C64.75 102.5 62.25 101.25 59.25 101.25C56.25 101.25 53.75 102.5 51.75 104.5C49.75 106.5 48.75 109 48.75 112C48.75 115 49.75 117.75 51.75 119.75C53.75 121.75 56.25 122.75 59.25 122.75ZM75.25 74.25L112.75 64.5V48.5L75.25 58.25V74.25ZM102 112C105 112 107.5 111 109.5 109C111.5 107 112.75 104.25 112.75 101.25C112.75 99.5 112.25 97.75 111.25 96C110.25 94.5 108.75 93.25 107.25 92.25C105.75 91.25 104 90.75 102 90.75C99 90.75 96.25 92 94.25 94C92.25 96 91.25 98.5 91.25 101.5C91.25 104.5 92.25 107 94.25 109C96.25 111 99 112 102 112ZM36.5 45.75L60.5 59.25L62 61.25C62 62.25 61.5 63 60.5 63.5L36.5 76.75L35.25 77.25L33.75 76.75L32.75 74.75V48L33.75 45.75H36.5ZM38 70.5L54 61.25L38 52.75V70.5ZM40.25 96C41.75 96 42.75 97 42.75 98.75C42.75 100.5 41.75 101.25 40.25 101.25H3.25C1.5 101.25 0.75 100.5 0.75 98.75V24C0.75 22.25 1.5 21.25 3.25 21.25H88.75C90.25 21.25 91.25 22.25 91.25 24V40C91.25 42 90.25 42.75 88.5 42.75C86.75 42.75 86 42 86 40V26.75H6V96H40.25ZM30 15.5C28 15.5 27.25 14.75 27.25 12.75V2.75C27.25 1 28 0 30 0H104.75C106.25 0 107.25 1 107.25 2.75V34.75C107.25 36.5 106.25 37.25 104.5 37.25C102.75 37.25 102 36.5 102 34.75V5.25H32.75V12.75C32.75 14.75 31.75 15.5 30 15.5Z" fill="white"/>
</svg>
